<svg xmlns="http://www.w3.org/2000/svg" xmlns:xlink="http://www.w3.org/1999/xlink" width="500" zoomAndPan="magnify" viewBox="0 0 375 374.999991" height="500" preserveAspectRatio="xMidYMid meet" version="1.0"><defs><clipPath id="79d61e95e8"><path d="M 84.710938 323 L 290.210938 323 L 290.210938 347 L 84.710938 347 Z M 84.710938 323 " clip-rule="nonzero"/></clipPath><clipPath id="cf7a0793a7"><path d="M 185 37.5 L 190 37.5 L 190 234 L 185 234 Z M 185 37.5 " clip-rule="nonzero"/></clipPath></defs><rect x="-37.5" width="450" fill="#ffffff" y="-37.499999" height="449.999989" fill-opacity="1"/><rect x="-37.5" width="450" fill="#ffffff" y="-37.499999" height="449.999989" fill-opacity="1"/><path fill="#303030" d="M 156.878906 256.691406 L 218.109375 256.691406 L 289.789062 334.316406 C 280.109375 329.089844 237.050781 323.929688 187.496094 323.929688 C 137.921875 323.929688 94.867188 329.105469 85.183594 334.316406 Z M 156.878906 256.691406 " fill-opacity="1" fill-rule="evenodd"/><path fill="#303030" d="M 187.496094 221.339844 C 196.917969 221.339844 204.625 229.046875 204.625 238.46875 L 204.625 287.304688 L 170.367188 287.304688 L 170.367188 238.46875 C 170.367188 229.046875 178.074219 221.339844 187.496094 221.339844 Z M 187.496094 221.339844 " fill-opacity="1" fill-rule="evenodd"/><g clip-path="url(#79d61e95e8)"><path fill="#000000" d="M 290.28125 335.425781 C 290.28125 335.613281 290.238281 335.800781 290.15625 335.988281 C 290.074219 336.175781 289.949219 336.363281 289.785156 336.550781 C 289.621094 336.738281 289.414062 336.921875 289.167969 337.109375 C 288.921875 337.296875 288.632812 337.480469 288.304688 337.664062 C 287.976562 337.847656 287.609375 338.03125 287.199219 338.214844 C 286.792969 338.394531 286.34375 338.578125 285.855469 338.757812 C 285.367188 338.9375 284.839844 339.113281 284.273438 339.292969 C 283.707031 339.46875 283.101562 339.644531 282.457031 339.816406 C 281.8125 339.992188 281.132812 340.164062 280.410156 340.332031 C 279.691406 340.503906 278.9375 340.671875 278.144531 340.835938 C 277.351562 341 276.523438 341.164062 275.65625 341.324219 C 274.792969 341.488281 273.890625 341.644531 272.957031 341.800781 C 272.023438 341.957031 271.054688 342.113281 270.054688 342.261719 C 269.050781 342.414062 268.015625 342.5625 266.949219 342.707031 C 265.882812 342.851562 264.785156 342.996094 263.652344 343.132812 C 262.523438 343.273438 261.363281 343.410156 260.175781 343.542969 C 258.984375 343.675781 257.769531 343.804688 256.523438 343.929688 C 255.273438 344.054688 254 344.179688 252.703125 344.296875 C 251.402344 344.417969 250.074219 344.53125 248.722656 344.644531 C 247.375 344.757812 246 344.863281 244.601562 344.96875 C 243.199219 345.074219 241.78125 345.171875 240.335938 345.269531 C 238.894531 345.367188 237.429688 345.460938 235.949219 345.546875 C 234.464844 345.636719 232.960938 345.722656 231.441406 345.800781 C 229.921875 345.882812 228.382812 345.957031 226.828125 346.03125 C 225.273438 346.101562 223.707031 346.167969 222.121094 346.234375 C 220.539062 346.296875 218.941406 346.355469 217.332031 346.410156 C 215.722656 346.464844 214.101562 346.515625 212.46875 346.558594 C 210.839844 346.605469 209.199219 346.644531 207.546875 346.683594 C 205.898438 346.71875 204.242188 346.75 202.578125 346.777344 C 200.914062 346.808594 199.242188 346.828125 197.570312 346.847656 C 195.894531 346.867188 194.21875 346.878906 192.539062 346.890625 C 190.859375 346.898438 189.175781 346.902344 187.496094 346.902344 C 185.8125 346.902344 184.132812 346.898438 182.453125 346.890625 C 180.773438 346.878906 179.09375 346.867188 177.421875 346.847656 C 175.746094 346.828125 174.078125 346.808594 172.414062 346.777344 C 170.75 346.75 169.09375 346.71875 167.441406 346.683594 C 165.792969 346.644531 164.152344 346.605469 162.519531 346.558594 C 160.890625 346.515625 159.269531 346.464844 157.660156 346.410156 C 156.046875 346.355469 154.453125 346.296875 152.867188 346.234375 C 151.285156 346.167969 149.714844 346.101562 148.160156 346.03125 C 146.605469 345.957031 145.070312 345.882812 143.550781 345.800781 C 142.027344 345.722656 140.527344 345.636719 139.042969 345.546875 C 137.558594 345.460938 136.097656 345.367188 134.652344 345.269531 C 133.210938 345.171875 131.789062 345.074219 130.390625 344.96875 C 128.992188 344.863281 127.617188 344.757812 126.265625 344.644531 C 124.914062 344.53125 123.589844 344.417969 122.289062 344.296875 C 120.988281 344.179688 119.714844 344.054688 118.46875 343.929688 C 117.222656 343.804688 116.003906 343.675781 114.816406 343.542969 C 113.625 343.410156 112.464844 343.273438 111.335938 343.132812 C 110.207031 342.996094 109.109375 342.851562 108.042969 342.707031 C 106.972656 342.5625 105.941406 342.414062 104.9375 342.261719 C 103.933594 342.113281 102.96875 341.957031 102.03125 341.800781 C 101.097656 341.644531 100.199219 341.488281 99.332031 341.324219 C 98.46875 341.164062 97.640625 341 96.847656 340.835938 C 96.054688 340.671875 95.296875 340.503906 94.578125 340.332031 C 93.859375 340.164062 93.179688 339.992188 92.535156 339.816406 C 91.890625 339.644531 91.285156 339.46875 90.71875 339.292969 C 90.152344 339.113281 89.625 338.9375 89.136719 338.757812 C 88.648438 338.578125 88.199219 338.394531 87.789062 338.214844 C 87.382812 338.03125 87.011719 337.847656 86.683594 337.664062 C 86.355469 337.480469 86.070312 337.296875 85.824219 337.109375 C 85.574219 336.921875 85.371094 336.738281 85.207031 336.550781 C 85.039062 336.363281 84.917969 336.175781 84.832031 335.988281 C 84.75 335.800781 84.710938 335.613281 84.710938 335.425781 C 84.710938 335.238281 84.75 335.050781 84.832031 334.863281 C 84.917969 334.675781 85.039062 334.488281 85.207031 334.300781 C 85.371094 334.113281 85.574219 333.925781 85.824219 333.742188 C 86.070312 333.554688 86.355469 333.371094 86.683594 333.183594 C 87.011719 333 87.382812 332.816406 87.789062 332.636719 C 88.199219 332.453125 88.648438 332.273438 89.136719 332.09375 C 89.625 331.914062 90.152344 331.734375 90.71875 331.558594 C 91.285156 331.382812 91.890625 331.207031 92.535156 331.03125 C 93.179688 330.859375 93.859375 330.6875 94.578125 330.515625 C 95.296875 330.347656 96.054688 330.179688 96.847656 330.015625 C 97.640625 329.847656 98.46875 329.683594 99.332031 329.523438 C 100.199219 329.363281 101.097656 329.203125 102.03125 329.046875 C 102.96875 328.890625 103.933594 328.738281 104.9375 328.585938 C 105.941406 328.4375 106.972656 328.289062 108.042969 328.144531 C 109.109375 327.996094 110.207031 327.855469 111.335938 327.714844 C 112.464844 327.578125 113.625 327.441406 114.816406 327.308594 C 116.003906 327.175781 117.222656 327.046875 118.46875 326.917969 C 119.714844 326.792969 120.988281 326.671875 122.289062 326.550781 C 123.589844 326.433594 124.914062 326.316406 126.265625 326.207031 C 127.617188 326.09375 128.992188 325.984375 130.390625 325.878906 C 131.789062 325.777344 133.210938 325.675781 134.652344 325.578125 C 136.097656 325.484375 137.558594 325.390625 139.042969 325.300781 C 140.527344 325.214844 142.027344 325.128906 143.550781 325.046875 C 145.070312 324.96875 146.605469 324.890625 148.160156 324.820312 C 149.714844 324.75 151.285156 324.679688 152.867188 324.617188 C 154.453125 324.554688 156.046875 324.496094 157.660156 324.441406 C 159.269531 324.386719 160.890625 324.335938 162.519531 324.289062 C 164.152344 324.246094 165.792969 324.203125 167.441406 324.167969 C 169.09375 324.128906 170.75 324.097656 172.414062 324.070312 C 174.078125 324.042969 175.746094 324.019531 177.421875 324 C 179.09375 323.984375 180.773438 323.96875 182.453125 323.960938 C 184.132812 323.949219 185.8125 323.945312 187.496094 323.945312 C 189.175781 323.945312 190.859375 323.949219 192.539062 323.960938 C 194.21875 323.96875 195.894531 323.984375 197.570312 324 C 199.242188 324.019531 200.914062 324.042969 202.578125 324.070312 C 204.242188 324.097656 205.898438 324.128906 207.546875 324.167969 C 209.199219 324.203125 210.839844 324.246094 212.46875 324.289062 C 214.101562 324.335938 215.722656 324.386719 217.332031 324.441406 C 218.941406 324.496094 220.539062 324.554688 222.121094 324.617188 C 223.707031 324.679688 225.273438 324.75 226.828125 324.820312 C 228.382812 324.890625 229.921875 324.96875 231.441406 325.046875 C 232.960938 325.128906 234.464844 325.214844 235.949219 325.300781 C 237.429688 325.390625 238.894531 325.484375 240.335938 325.578125 C 241.78125 325.675781 243.199219 325.777344 244.601562 325.878906 C 246 325.984375 247.375 326.09375 248.722656 326.207031 C 250.074219 326.316406 251.402344 326.433594 252.703125 326.550781 C 254 326.671875 255.273438 326.792969 256.523438 326.917969 C 257.769531 327.046875 258.984375 327.175781 260.175781 327.308594 C 261.363281 327.441406 262.523438 327.578125 263.652344 327.714844 C 264.785156 327.855469 265.882812 327.996094 266.949219 328.144531 C 268.015625 328.289062 269.050781 328.4375 270.054688 328.585938 C 271.054688 328.738281 272.023438 328.890625 272.957031 329.046875 C 273.890625 329.203125 274.792969 329.363281 275.65625 329.523438 C 276.523438 329.683594 277.351562 329.847656 278.144531 330.015625 C 278.9375 330.179688 279.691406 330.347656 280.410156 330.515625 C 281.132812 330.6875 281.8125 330.859375 282.457031 331.03125 C 283.101562 331.207031 283.707031 331.382812 284.273438 331.558594 C 284.839844 331.734375 285.367188 331.914062 285.855469 332.09375 C 286.34375 332.273438 286.792969 332.453125 287.199219 332.636719 C 287.609375 332.816406 287.976562 333 288.304688 333.183594 C 288.632812 333.371094 288.921875 333.554688 289.167969 333.742188 C 289.414062 333.925781 289.621094 334.113281 289.785156 334.300781 C 289.949219 334.488281 290.074219 334.675781 290.15625 334.863281 C 290.238281 335.050781 290.28125 335.238281 290.28125 335.425781 Z M 290.28125 335.425781 " fill-opacity="1" fill-rule="nonzero"/></g><path fill="#f9f7f8" d="M 211.59375 324.257812 C 211.921875 325.839844 212.085938 327.488281 212.085938 329.171875 C 212.085938 342.773438 201.082031 353.777344 187.496094 353.777344 C 173.894531 353.777344 162.890625 342.773438 162.890625 329.171875 C 162.890625 327.488281 163.050781 325.839844 163.378906 324.257812 C 171.117188 324.042969 179.183594 323.929688 187.496094 323.929688 C 195.789062 323.929688 203.871094 324.042969 211.59375 324.257812 Z M 211.59375 324.257812 " fill-opacity="1" fill-rule="evenodd"/><g clip-path="url(#cf7a0793a7)"><path fill="#303030" d="M 187.488281 37.683594 C 187.546875 37.683594 187.605469 37.730469 187.664062 37.824219 C 187.71875 37.921875 187.777344 38.0625 187.835938 38.253906 C 187.894531 38.445312 187.949219 38.679688 188.007812 38.964844 C 188.0625 39.246094 188.117188 39.574219 188.171875 39.949219 C 188.226562 40.320312 188.277344 40.738281 188.328125 41.199219 C 188.382812 41.65625 188.433594 42.15625 188.480469 42.699219 C 188.527344 43.242188 188.574219 43.820312 188.621094 44.4375 C 188.667969 45.058594 188.710938 45.710938 188.75 46.402344 C 188.792969 47.089844 188.832031 47.8125 188.871094 48.566406 C 188.90625 49.320312 188.941406 50.101562 188.972656 50.910156 C 189.007812 51.722656 189.035156 52.558594 189.0625 53.417969 C 189.089844 54.277344 189.117188 55.15625 189.140625 56.058594 C 189.160156 56.957031 189.179688 57.875 189.199219 58.808594 C 189.214844 59.742188 189.230469 60.683594 189.242188 61.640625 C 189.253906 62.597656 189.261719 63.5625 189.265625 64.53125 C 189.273438 65.5 189.273438 66.472656 189.273438 67.449219 L 189.273438 203.722656 C 189.273438 204.699219 189.273438 205.671875 189.265625 206.640625 C 189.261719 207.609375 189.253906 208.574219 189.242188 209.53125 C 189.230469 210.484375 189.214844 211.429688 189.199219 212.363281 C 189.179688 213.296875 189.160156 214.214844 189.140625 215.113281 C 189.117188 216.015625 189.089844 216.894531 189.0625 217.753906 C 189.035156 218.613281 189.007812 219.449219 188.972656 220.261719 C 188.941406 221.070312 188.90625 221.851562 188.871094 222.605469 C 188.832031 223.359375 188.792969 224.082031 188.75 224.769531 C 188.710938 225.460938 188.667969 226.113281 188.621094 226.730469 C 188.574219 227.351562 188.527344 227.929688 188.480469 228.472656 C 188.433594 229.015625 188.382812 229.515625 188.328125 229.972656 C 188.277344 230.433594 188.226562 230.851562 188.171875 231.222656 C 188.117188 231.597656 188.0625 231.925781 188.007812 232.207031 C 187.949219 232.488281 187.894531 232.726562 187.835938 232.917969 C 187.777344 233.105469 187.71875 233.25 187.664062 233.34375 C 187.605469 233.441406 187.546875 233.488281 187.488281 233.488281 C 187.429688 233.488281 187.371094 233.441406 187.3125 233.34375 C 187.253906 233.25 187.195312 233.105469 187.136719 232.917969 C 187.082031 232.726562 187.023438 232.488281 186.96875 232.207031 C 186.910156 231.925781 186.855469 231.597656 186.804688 231.222656 C 186.75 230.851562 186.695312 230.433594 186.644531 229.972656 C 186.59375 229.515625 186.542969 229.015625 186.492188 228.472656 C 186.445312 227.929688 186.398438 227.351562 186.351562 226.730469 C 186.308594 226.113281 186.265625 225.460938 186.222656 224.769531 C 186.179688 224.082031 186.140625 223.359375 186.105469 222.605469 C 186.066406 221.851562 186.03125 221.070312 186 220.261719 C 185.96875 219.449219 185.9375 218.613281 185.910156 217.753906 C 185.882812 216.894531 185.859375 216.015625 185.835938 215.113281 C 185.8125 214.214844 185.792969 213.296875 185.777344 212.363281 C 185.757812 211.429688 185.746094 210.484375 185.734375 209.53125 C 185.722656 208.574219 185.714844 207.609375 185.707031 206.640625 C 185.703125 205.671875 185.699219 204.699219 185.699219 203.722656 L 185.699219 67.449219 C 185.699219 66.472656 185.703125 65.5 185.707031 64.53125 C 185.714844 63.5625 185.722656 62.597656 185.734375 61.640625 C 185.746094 60.683594 185.757812 59.742188 185.777344 58.808594 C 185.792969 57.875 185.8125 56.957031 185.835938 56.058594 C 185.859375 55.15625 185.882812 54.277344 185.910156 53.417969 C 185.9375 52.558594 185.96875 51.722656 186 50.910156 C 186.03125 50.101562 186.066406 49.320312 186.105469 48.566406 C 186.140625 47.8125 186.179688 47.089844 186.222656 46.402344 C 186.265625 45.710938 186.308594 45.058594 186.351562 44.4375 C 186.398438 43.820312 186.445312 43.242188 186.492188 42.699219 C 186.542969 42.15625 186.59375 41.65625 186.644531 41.199219 C 186.695312 40.738281 186.75 40.320312 186.804688 39.949219 C 186.855469 39.574219 186.910156 39.246094 186.96875 38.964844 C 187.023438 38.679688 187.082031 38.445312 187.136719 38.253906 C 187.195312 38.0625 187.253906 37.921875 187.3125 37.824219 C 187.371094 37.730469 187.429688 37.683594 187.488281 37.683594 Z M 187.488281 37.683594 " fill-opacity="1" fill-rule="evenodd"/></g></svg>