<svg xmlns="http://www.w3.org/2000/svg" xmlns:xlink="http://www.w3.org/1999/xlink" width="500" zoomAndPan="magnify" viewBox="0 0 375 374.999991" height="500" preserveAspectRatio="xMidYMid meet" version="1.0">
  <defs>
    <clipPath id="6b228b13d7">
      <path d="M 248.480469 131.230469 L 358.511719 131.230469 L 358.511719 221.609375 L 248.480469 221.609375 Z M 248.480469 131.230469 " clip-rule="nonzero" />
    </clipPath>
    <clipPath id="f92c4ac177">
      <path d="M 59 236.449219 L 102 236.449219 L 102 323.914062 L 59 323.914062 Z M 59 236.449219 " clip-rule="nonzero" />
    </clipPath>
    <clipPath id="a0cb90c9ff">
      <path d="M 82.457031 318.734375 L 86.84375 318.734375 L 86.84375 323.914062 L 82.457031 323.914062 Z M 82.457031 318.734375 " clip-rule="nonzero" />
    </clipPath>
    <clipPath id="7b44fa608c">
      <path d="M 16.519531 172 L 124 172 L 124 244 L 16.519531 244 Z M 16.519531 172 " clip-rule="nonzero" />
    </clipPath>
  </defs>
  <g clip-path="url(#6b228b13d7)">
    <path fill="#ff7101" d="M 267.300781 203.894531 C 262.359375 199.785156 248.230469 188.019531 248.6875 171.574219 C 249.25 151.496094 271.25 136.105469 289.84375 132.40625 C 317.453125 126.90625 348.457031 145 356.265625 171.636719 C 357.140625 174.625 362.554688 193.085938 352.558594 206.832031 C 336.574219 228.808594 291.746094 224.234375 267.300781 203.894531 " fill-opacity="1" fill-rule="nonzero" />
  </g>
  <path fill="#ff8d40" d="M 343.367188 204.878906 C 343.621094 208.84375 342.769531 212.722656 341.148438 216.265625 C 320.839844 226.582031 287.269531 220.527344 267.300781 203.894531 C 264.355469 201.464844 258.035156 196.222656 253.597656 188.847656 C 254.023438 185.777344 255.003906 182.535156 257.011719 179.550781 C 267.039062 164.882812 294.855469 168.507812 310.683594 174.390625 C 316.742188 176.652344 342.171875 186.160156 343.367188 204.878906 " fill-opacity="1" fill-rule="nonzero" />
  <path fill="#ff8d40" d="M 348.175781 172.175781 C 350.558594 169.535156 348.527344 163.015625 344.769531 161.039062 C 344.28125 160.78125 342.640625 159.917969 341.121094 160.589844 C 339.867188 161.148438 339.375 162.457031 339.210938 162.902344 C 338.277344 165.394531 339.617188 167.890625 340.386719 169.320312 C 341.332031 171.085938 342.375 173.023438 344.402344 173.390625 C 345.699219 173.625 347.257812 173.195312 348.175781 172.175781 " fill-opacity="1" fill-rule="nonzero" />
  <path fill="#ff8d40" d="M 328.210938 153.152344 C 324.835938 150.769531 318.027344 154.191406 317.839844 157.328125 C 317.769531 158.5625 318.738281 159.480469 318.925781 159.648438 C 321.824219 162.273438 329.351562 159.835938 329.914062 156.554688 C 330.140625 155.21875 329.195312 153.847656 328.210938 153.152344 " fill-opacity="1" fill-rule="nonzero" />
  <path fill="#e55638" d="M 315.804688 176.4375 C 314.351562 186.074219 311.664062 202.535156 307.65625 220.699219 C 301.808594 247.136719 293.191406 277.070312 281.5 293.996094 C 277.40625 299.964844 268.144531 313.398438 257.992188 312.121094 C 252.359375 311.394531 248.730469 306.449219 248.007812 305.46875 C 236.53125 289.222656 260.851562 260.652344 276.636719 210.335938 C 277.746094 206.839844 278.8125 203.257812 279.792969 199.546875 C 283.25 186.671875 285.128906 175.882812 286.109375 169.316406 C 294.941406 169.742188 303.941406 171.875 310.683594 174.390625 C 311.792969 174.816406 313.628906 175.5 315.804688 176.4375 " fill-opacity="1" fill-rule="nonzero" />
  <path fill="#cc3921" d="M 269.640625 256.019531 C 269.671875 256.222656 269.816406 256.863281 270.238281 257.089844 C 271.582031 257.804688 274.632812 254.84375 275.039062 249.84375 C 275.09375 249.199219 273.960938 248.886719 273.390625 249.027344 C 272.671875 249.207031 272.6875 250.136719 271.875 251.757812 C 270.695312 254.113281 269.410156 254.65625 269.640625 256.019531 " fill-opacity="1" fill-rule="nonzero" />
  <path fill="#cc3921" d="M 286.640625 242.238281 C 286.296875 242.03125 285.847656 242.207031 285.609375 242.296875 C 284.292969 242.804688 284.542969 244.265625 283.097656 248.585938 C 282.789062 249.496094 282.402344 250.550781 282.882812 251.03125 C 283.175781 251.328125 283.667969 251.277344 283.734375 251.269531 C 286.027344 251.035156 288.203125 243.179688 286.640625 242.238281 " fill-opacity="1" fill-rule="nonzero" />
  <path fill="#cc3921" d="M 272.726562 269.851562 C 272.050781 269.910156 271.71875 270.464844 270.785156 271.707031 L 267.007812 276.710938 C 266.539062 277.316406 266.128906 277.820312 266.246094 278.421875 C 266.375 279.113281 267.164062 279.734375 267.855469 279.664062 C 268.390625 279.609375 268.75 279.148438 268.90625 278.9375 C 269.898438 277.652344 271.054688 276.492188 271.972656 275.148438 C 273.953125 272.246094 274.75 271.765625 274.46875 270.953125 C 274.234375 270.28125 273.414062 269.796875 272.726562 269.851562 " fill-opacity="1" fill-rule="nonzero" />
  <path fill="#cc3921" d="M 277 285.722656 C 275.515625 287.507812 271.238281 292.015625 274.335938 292.585938 C 275.5625 292.808594 276.042969 292.246094 279.441406 288.164062 C 281.132812 286.128906 278.21875 284.257812 277 285.722656 " fill-opacity="1" fill-rule="nonzero" />
  <path fill="#cc3921" d="M 261.332031 295.21875 C 260.625 297 257.308594 301.644531 257.535156 301.28125 C 256.445312 303.660156 261.53125 303.824219 264.148438 295.992188 C 264.710938 294.308594 262.113281 293.25 261.332031 295.21875 " fill-opacity="1" fill-rule="nonzero" />
  <path fill="#cc3921" d="M 258.875 279.90625 C 258.703125 279.492188 258.28125 279 257.714844 278.902344 C 256.507812 278.691406 255.4375 280.402344 253.378906 283.695312 C 252.527344 285.0625 252.109375 285.921875 252.445312 286.644531 C 252.628906 287.039062 253.046875 287.410156 253.535156 287.484375 C 254.660156 287.660156 255.679688 286.183594 257.402344 283.621094 C 259.054688 281.167969 259.089844 280.429688 258.875 279.90625 " fill-opacity="1" fill-rule="nonzero" />
  <path fill="#e55638" d="M 146.777344 147.582031 L 188.914062 146.605469 C 184.136719 175.441406 185.164062 198.585938 186.953125 214.175781 C 189.230469 233.96875 190.382812 244 195.285156 257.753906 C 202.382812 277.671875 210.628906 286.546875 206.554688 298.394531 C 203.894531 306.125 196.832031 312.6875 188.914062 314.554688 C 188.914062 314.554688 178.527344 317.003906 165.398438 308.1875 C 136.1875 288.582031 145.773438 160.234375 146.777344 147.582031 " fill-opacity="1" fill-rule="nonzero" />
  <path fill="#cc3921" d="M 157.425781 222.726562 C 157.425781 221.960938 157.394531 221.199219 157.367188 220.433594 L 157.28125 218.140625 C 157.265625 217.742188 157.238281 217.351562 157.191406 216.953125 C 157.167969 216.785156 157.148438 216.613281 157.128906 216.445312 C 157.082031 216.09375 156.9375 215.910156 156.722656 215.636719 C 156.519531 215.378906 155.992188 215.378906 155.789062 215.636719 C 155.578125 215.910156 155.429688 216.09375 155.386719 216.445312 C 155.367188 216.613281 155.34375 216.785156 155.324219 216.953125 C 155.277344 217.351562 155.253906 217.742188 155.238281 218.140625 L 155.152344 220.433594 C 155.125 221.199219 155.097656 221.960938 155.097656 222.726562 L 155.097656 223.917969 C 155.097656 224.414062 155.203125 224.808594 155.414062 225.261719 C 155.710938 225.902344 156.816406 225.90625 157.113281 225.261719 C 157.320312 224.808594 157.429688 224.414062 157.425781 223.917969 L 157.425781 222.726562 " fill-opacity="1" fill-rule="nonzero" />
  <path fill="#cc3921" d="M 168.433594 216.109375 C 168.53125 215.285156 167.632812 214.492188 166.84375 214.523438 C 165.90625 214.566406 165.355469 215.222656 165.257812 216.109375 C 165.09375 217.617188 165.046875 219.128906 165.128906 220.640625 C 165.222656 222.277344 165.453125 223.925781 166.234375 225.382812 C 166.476562 225.828125 167.058594 226.042969 167.535156 225.914062 C 168.050781 225.769531 168.335938 225.3125 168.378906 224.804688 C 168.507812 223.363281 168.308594 221.914062 168.253906 220.472656 C 168.195312 219.015625 168.257812 217.558594 168.433594 216.109375 " fill-opacity="1" fill-rule="nonzero" />
  <path fill="#cc3921" d="M 176.101562 245.5625 C 175.871094 244.5625 175.664062 243.550781 175.453125 242.542969 C 174.941406 240.113281 174.75 239.074219 174.019531 238.832031 C 173.714844 238.734375 173.347656 238.777344 173.074219 238.957031 C 172.605469 239.269531 172.4375 240.011719 172.804688 243.027344 C 173.023438 244.824219 173.277344 246.144531 173.289062 246.214844 C 173.652344 248.390625 174.492188 250.390625 175.414062 252.378906 C 175.738281 253.082031 176.933594 252.742188 176.878906 251.984375 C 176.714844 249.828125 176.585938 247.675781 176.101562 245.5625 " fill-opacity="1" fill-rule="nonzero" />
  <path fill="#cc3921" d="M 169.769531 255.902344 C 169.546875 255.191406 169.308594 254.492188 169.035156 253.796875 C 168.738281 253.039062 168.429688 252.292969 168.113281 251.546875 C 167.832031 250.886719 167.605469 250.128906 167.179688 249.546875 C 166.878906 249.132812 166.417969 248.882812 165.898438 249.027344 C 165.433594 249.152344 165.035156 249.625 165.0625 250.121094 C 165.105469 250.917969 165.390625 251.667969 165.617188 252.425781 C 165.835938 253.164062 166.0625 253.898438 166.300781 254.632812 C 166.53125 255.34375 166.796875 256.03125 167.078125 256.726562 L 167.5 257.765625 C 167.59375 257.996094 167.667969 258.242188 167.800781 258.453125 C 167.933594 258.671875 168.128906 258.847656 168.308594 259.035156 C 169.03125 259.792969 170.179688 259.167969 170.246094 258.230469 C 170.308594 257.402344 170.015625 256.679688 169.769531 255.902344 " fill-opacity="1" fill-rule="nonzero" />
  <path fill="#cc3921" d="M 188.414062 281.53125 C 187.101562 278.65625 186.457031 275.921875 184.636719 276.6875 C 184 276.957031 183.542969 277.730469 183.785156 278.429688 C 184.242188 279.75 185.546875 283.578125 186.34375 284.722656 C 187.375 286.207031 190.234375 285.527344 188.414062 281.53125 " fill-opacity="1" fill-rule="nonzero" />
  <path fill="#cc3921" d="M 178.515625 286.597656 C 178.296875 286.109375 177.992188 285.597656 177.492188 285.492188 C 176.921875 285.363281 176.375 285.832031 176.277344 285.914062 C 174.574219 287.375 176.140625 291.652344 176.898438 293.71875 C 177.148438 294.410156 177.578125 295.417969 178.363281 295.570312 C 178.425781 295.582031 178.640625 295.621094 178.832031 295.558594 C 180.351562 295.085938 179.59375 289.015625 178.515625 286.597656 " fill-opacity="1" fill-rule="nonzero" />
  <path fill="#cc3921" d="M 159.011719 272.4375 C 158.722656 271.226562 156.738281 271.457031 156.980469 273 C 158.210938 280.820312 157.785156 278.148438 158.359375 281.257812 C 158.773438 283.515625 160.816406 283.757812 160.996094 281.632812 C 161.066406 280.804688 159.371094 273.949219 159.011719 272.4375 " fill-opacity="1" fill-rule="nonzero" />
  <path fill="#cc3921" d="M 200.265625 308.105469 C 199.617188 308.789062 198.863281 309.433594 198.109375 310.011719 C 193.6875 303.4375 194.082031 296.109375 196.957031 298.984375 C 197.605469 299.628906 199.257812 304.660156 200.265625 308.105469 " fill-opacity="1" fill-rule="nonzero" />
  <path fill="#ff7101" d="M 96.3125 139.257812 C 98.773438 142.539062 101.949219 143.96875 108.074219 146.113281 C 127.308594 152.859375 165.925781 165.777344 215.863281 152.96875 C 228.210938 149.800781 234.253906 146.855469 238.398438 141.21875 C 248.285156 127.769531 240.960938 107.710938 238.890625 102.046875 C 229.480469 76.296875 203.765625 56.664062 175.6875 53.082031 C 169.824219 52.332031 157.757812 50.933594 143.8125 55.933594 C 105.191406 69.78125 83.082031 121.605469 96.3125 139.257812 " fill-opacity="1" fill-rule="nonzero" />
  <path fill="#ff8d40" d="M 136.101562 74.445312 C 133.699219 79.152344 137.4375 83.351562 143.132812 80.835938 C 145.769531 79.675781 149.660156 76.691406 149.773438 73.789062 C 150 67.875 138.34375 70.050781 136.101562 74.445312 " fill-opacity="1" fill-rule="nonzero" />
  <path fill="#ff8d40" d="M 126.683594 90.496094 C 123.164062 90.074219 118.324219 91.734375 117.824219 94.730469 C 117.742188 95.230469 117.722656 96.082031 118.34375 97.238281 C 118.546875 97.5 118.910156 97.925781 119.460938 98.3125 C 122.777344 100.632812 129.300781 98.964844 130.417969 95.613281 C 130.816406 94.417969 130.601562 92.789062 129.652344 91.738281 C 128.769531 90.761719 127.539062 90.597656 126.683594 90.496094 " fill-opacity="1" fill-rule="nonzero" />
  <path fill="#ff8d40" d="M 167.613281 68.078125 C 161.96875 68.828125 157.878906 78.203125 160.285156 81.328125 C 161.515625 82.925781 164.199219 82.582031 164.464844 82.542969 C 170.160156 81.742188 173.894531 72.03125 171.429688 69.085938 C 170.285156 67.722656 167.992188 68.027344 167.613281 68.078125 " fill-opacity="1" fill-rule="nonzero" />
  <g clip-path="url(#f92c4ac177)">
    <path fill="#e55638" d="M 85.046875 237.679688 C 81.523438 262.867188 86.769531 278.347656 92.886719 288.113281 C 97.273438 295.121094 103.238281 300.984375 101.703125 308.679688 C 100.210938 316.175781 92.0625 322.992188 83.570312 323.867188 C 83.570312 323.867188 77.628906 324.46875 71.816406 321.410156 C 52.644531 311.320312 60.511719 241.144531 61.039062 236.699219 L 85.046875 237.679688 " fill-opacity="1" fill-rule="nonzero" />
  </g>
  <path fill="#cc3921" d="M 71.671875 284.449219 C 71.722656 283.148438 69.71875 282.878906 69.402344 284.140625 C 68.609375 287.332031 69.226562 293.398438 71.703125 293.382812 C 74.539062 293.363281 71.472656 289.699219 71.671875 284.449219 " fill-opacity="1" fill-rule="nonzero" />
  <path fill="#cc3921" d="M 79.988281 284.019531 C 80.097656 285.042969 79.867188 277.699219 77.410156 278.492188 C 75.261719 279.1875 77.199219 285.175781 78.074219 287.234375 C 78.492188 288.21875 80.152344 287.886719 80.191406 286.660156 C 80.238281 285.359375 80.289062 286.121094 79.988281 284.019531 " fill-opacity="1" fill-rule="nonzero" />
  <path fill="#cc3921" d="M 79.375 300.867188 C 79.417969 300.140625 78.699219 299.449219 77.984375 299.480469 C 75.066406 299.609375 77.0625 306.851562 79.746094 307.039062 C 80.375 307.082031 80.90625 306.46875 80.910156 305.875 C 80.917969 304.378906 79.179688 303.871094 79.375 300.867188 " fill-opacity="1" fill-rule="nonzero" />
  <path fill="#cc3921" d="M 94.207031 302.4375 C 94.207031 302.4375 93.597656 301.390625 92.445312 299.375 C 91.339844 297.441406 88.480469 299.171875 89.558594 301.058594 C 90.039062 301.894531 90.0625 302.140625 91.886719 305.03125 C 92.839844 306.539062 93.3125 307.507812 94.125 307.515625 C 94.417969 307.519531 94.746094 307.394531 94.96875 307.164062 C 95.722656 306.398438 95.082031 304.71875 94.207031 302.4375 " fill-opacity="1" fill-rule="nonzero" />
  <g clip-path="url(#a0cb90c9ff)">
    <path fill="#cc3921" d="M 86.800781 323.226562 C 85.757812 323.550781 84.648438 323.757812 83.570312 323.867188 C 83.570312 323.867188 83.492188 323.875 83.316406 323.875 C 82.632812 321.753906 82.273438 318.738281 84.179688 318.953125 C 85.613281 319.097656 85.496094 320.074219 86.371094 322.296875 C 86.582031 322.835938 86.726562 323.046875 86.800781 323.226562 " fill-opacity="1" fill-rule="nonzero" />
  </g>
  <g clip-path="url(#7b44fa608c)">
    <path fill="#ff7101" d="M 17.433594 228.867188 C 16.507812 226.375 17.140625 223.777344 18.414062 218.582031 C 18.863281 216.730469 27.597656 183.386719 58.109375 174.546875 C 62 173.417969 71.601562 170.757812 83.085938 173.535156 C 109.839844 180 119.769531 209.417969 121.367188 214.152344 C 123.042969 219.121094 123.882812 221.605469 123.261719 223.96875 C 117.3125 246.660156 25.703125 251.140625 17.433594 228.867188 " fill-opacity="1" fill-rule="nonzero" />
  </g>
  <path fill="#ff8d40" d="M 39.828125 198.257812 C 36.457031 202.800781 40.863281 205.507812 43.367188 204.792969 C 44.410156 204.496094 45.285156 203.796875 46.101562 203.117188 C 54.710938 195.953125 47.730469 187.605469 39.828125 198.257812 " fill-opacity="1" fill-rule="nonzero" />
  <path fill="#ff8d40" d="M 66.734375 188.960938 C 66.554688 188.179688 66.160156 187.480469 65.648438 186.871094 C 65.46875 186.660156 64.835938 186.011719 63.375 185.472656 C 62.527344 185.160156 59.355469 183.992188 56.71875 185.679688 C 56.050781 186.105469 55.546875 186.429688 55.347656 187.050781 C 54.695312 189.082031 58.027344 192.167969 61.3125 193.289062 C 62.566406 193.71875 64.34375 194.324219 65.632812 193.375 C 66.996094 192.371094 67.03125 190.21875 66.734375 188.960938 " fill-opacity="1" fill-rule="nonzero" />
  <path fill="#ff8d40" d="M 105.621094 219.1875 C 104.714844 218.414062 103.421875 218.542969 103.246094 218.5625 C 101.4375 218.773438 100.4375 220.433594 100.042969 221.09375 C 99.683594 221.6875 98.023438 224.445312 99.464844 226.390625 C 100.507812 227.800781 102.707031 228.128906 104.183594 227.472656 C 107.109375 226.171875 107.566406 220.847656 105.621094 219.1875 " fill-opacity="1" fill-rule="nonzero" />
</svg>